<!-- Generated by IcoMoon.io -->
<svg version="1.1" xmlns="http://www.w3.org/2000/svg" width="1024" height="1024" viewBox="0 0 1024 1024">
<title></title>
<g id="icomoon-ignore">
</g>
<path fill="#000" d="M512 85.333c-235.52 0-426.667 191.147-426.667 426.667s191.147 426.667 426.667 426.667 426.667-191.147 426.667-426.667-191.147-426.667-426.667-426.667zM512 853.333c-188.16 0-341.333-153.173-341.333-341.333s153.173-341.333 341.333-341.333 341.333 153.173 341.333 341.333c0 188.16-153.173 341.333-341.333 341.333zM549.973 473.6c-75.947-25.173-112.64-40.96-112.64-81.067 0-43.52 47.36-59.307 77.227-59.307 55.893 0 76.373 42.24 81.067 57.173l67.413-28.587c-6.4-18.773-34.987-81.493-113.493-95.147v-53.333h-74.667v53.76c-110.933 23.893-111.787 121.6-111.787 126.293 0 96.853 96 124.16 142.933 141.227 67.413 23.893 97.28 45.653 97.28 86.613 0 48.213-44.8 68.693-84.48 68.693-77.653 0-99.84-79.787-102.4-89.173l-70.827 28.587c26.88 93.44 97.28 118.613 128.853 126.293v55.040h74.667v-52.907c22.187-3.84 128.853-25.173 128.853-137.387 0.427-59.307-25.6-111.36-128-146.773z"></path>
</svg>
