<!-- Generated by IcoMoon.io -->
<svg version="1.1" xmlns="http://www.w3.org/2000/svg" width="1024" height="1024" viewBox="0 0 1024 1024">
<title></title>
<g id="icomoon-ignore">
</g>
<path fill="#000" d="M549.12 642.987l-108.373-107.093 1.28-1.28c74.24-82.773 127.147-177.92 158.293-278.613h125.013v-85.333h-298.667v-85.333h-85.333v85.333h-298.667v84.907h476.587c-28.587 82.347-73.813 160.427-135.253 228.693-39.68-43.947-72.533-92.16-98.56-142.933h-85.333c31.147 69.547 73.813 135.253 127.147 194.56l-217.173 214.187 60.587 60.587 213.333-213.333 132.693 132.693 32.427-87.040zM789.333 426.667h-85.333l-192 512h85.333l47.787-128h202.667l48.213 128h85.333l-192-512zM677.547 725.333l69.12-184.747 69.12 184.747h-138.24z"></path>
</svg>
